<svg xmlns="http://www.w3.org/2000/svg" viewBox="0 0 1200 520" preserveAspectRatio="xMidYMid slice"><defs><linearGradient id="g" x1="0" y1="0" x2="1" y2="1"><stop offset="0" stop-color="#101610"/><stop offset=".55" stop-color="#253026"/><stop offset="1" stop-color="#111711"/></linearGradient><linearGradient id="m" x1="0" y1="0" x2="0" y2="1"><stop stop-color="#536252"/><stop offset="1" stop-color="#172017"/></linearGradient></defs><rect width="1200" height="520" fill="url(#g)"/><circle cx="930" cy="40" r="210" fill="#a8b9a0" opacity=".10"/><path d="M0 420 170 260 280 340 470 90 590 250 735 130 860 290 1030 180 1200 340V520H0Z" fill="#0c120d" opacity=".88"/><path d="M170 420 470 90 590 250 735 130 870 360 1010 260 1200 390V520H170Z" fill="url(#m)" opacity=".72"/><path d="m430 135 40-45 26 76-48-25Z" fill="#cbd5c7" opacity=".5"/><path d="m700 170 35-40 35 64-50-20Z" fill="#cbd5c7" opacity=".35"/></svg>