<svg xmlns="http://www.w3.org/2000/svg" viewBox="0 0 960 520" preserveAspectRatio="xMidYMid slice">
  <defs>
    <linearGradient id="sky" x1="0" y1="0" x2="0" y2="1">
      <stop offset="0" stop-color="#dce5cf" stop-opacity=".3"/>
      <stop offset="1" stop-color="#71836b" stop-opacity=".05"/>
    </linearGradient>
    <linearGradient id="ridge" x1="0" y1="0" x2="1" y2="1">
      <stop stop-color="#dae1ca" stop-opacity=".54"/>
      <stop offset="1" stop-color="#809177" stop-opacity=".13"/>
    </linearGradient>
    <filter id="mist"><feGaussianBlur stdDeviation="13"/></filter>
  </defs>
  <rect width="960" height="520" fill="url(#sky)"/>
  <path d="M0 361 92 304l65 28 121-148 86 105 74-58 92 78 91-142 119 129 74-46 146 104v166H0Z" fill="url(#ridge)"/>
  <path d="m0 416 118-78 62 37 103-91 91 78 105-116 92 91 65-42 94 83 105-64 125 97v109H0Z" fill="#b9c7aa" opacity=".22"/>
  <path d="M0 409c157-51 291 26 443-15 143-39 269-15 517-61v187H0Z" fill="#304d3d" opacity=".56"/>
  <path d="M-40 356c168-42 294 38 459 3 177-38 310 20 573-55" fill="none" stroke="#eef1df" stroke-width="42" stroke-linecap="round" opacity=".13" filter="url(#mist)"/>
</svg>
